<svg xmlns="http://www.w3.org/2000/svg" viewBox="0 0 150.51465 25.23877"><defs><style>.a{fill:#383c41;}</style></defs><title>brand_text</title><path d="M8.99561,4.25049A4.54274,4.54274,0,0,0,6.17822,5.041a2.58393,2.58393,0,0,0-1.03808,2.1748A2.67618,2.67618,0,0,0,6.44189,9.47266,17.20422,17.20422,0,0,0,10.083,11.26855a14.90052,14.90052,0,0,1,3.04785,1.43311,6.47371,6.47371,0,0,1,2.09228,2.19092,6.74365,6.74365,0,0,1,.82374,3.49267,6.45572,6.45572,0,0,1-.95557,3.45948,6.75044,6.75044,0,0,1-2.76807,2.47119,9.32733,9.32733,0,0,1-4.2832.92285,13.982,13.982,0,0,1-4.28369-.67529A13.34539,13.34539,0,0,1,0,22.70166l1.71338-2.99854a11.01809,11.01809,0,0,0,2.8833,1.53223,8.99453,8.99453,0,0,0,3.08057.60938,5.57835,5.57835,0,0,0,3.06445-.83985,2.85262,2.85262,0,0,0,1.31836-2.58642,2.88561,2.88561,0,0,0-1.104-2.30664,10.92284,10.92284,0,0,0-3.081-1.68018,25.78222,25.78222,0,0,1-3.39355-1.49951A7.06562,7.06562,0,0,1,2.1582,10.85645a5.53007,5.53007,0,0,1-.97168-3.34424,6.05872,6.05872,0,0,1,1.99317-4.728A8.06851,8.06851,0,0,1,8.43555.85645a14.41137,14.41137,0,0,1,4.168.54394,13.39888,13.39888,0,0,1,3.34423,1.53223l-1.4497,2.93213A12.20637,12.20637,0,0,0,8.99561,4.25049Z"/><path d="M24.877,11.40039l.52686-.75781L34.43213.98828H39.375l-9.918,10.478L39.7373,24.9751H34.86084L26.65625,13.9043l-1.68066,1.64746V24.9751H21.0874V.98828h3.88819v9.19287Z"/><path d="M62.93408.98828,53.939,17.19922V24.9751H50.1167V17.19922L41.25293.98828h4.71191l6.19483,11.82861L58.22217.98828Z"/><path d="M82.62158,24.46436a15.063,15.063,0,0,1-4.49756.77441,14.02926,14.02926,0,0,1-6.65576-1.51563,10.86031,10.86031,0,0,1-4.41553-4.168A11.70069,11.70069,0,0,1,65.50391,13.542,13.74384,13.74384,0,0,1,67.168,6.58984a11.02336,11.02336,0,0,1,4.48144-4.38232A13.06237,13.06237,0,0,1,77.82764.72461a15.79416,15.79416,0,0,1,3.9375.478,13.70513,13.70513,0,0,1,3.27832,1.26855l-1.252,3.5586A10.17282,10.17282,0,0,0,81.17188,5.0083a11.45387,11.45387,0,0,0-2.8501-.42871,8.99233,8.99233,0,0,0-6.49121,2.27393A8.39108,8.39108,0,0,0,69.458,13.2124a8.26356,8.26356,0,0,0,1.104,4.29981A7.47571,7.47571,0,0,0,73.65918,20.395a9.865,9.865,0,0,0,4.56348,1.02148,11.05563,11.05563,0,0,0,2.208-.21386,6.359,6.359,0,0,0,1.7793-.60987V16.606H77.6958V12.916h8.36914v9.85156A9.27774,9.27774,0,0,1,82.62158,24.46436Z"/><path d="M104.22021,19.34082H95.48877L93.18213,24.9751H89.39307L100.00293,0h.23047l10.60986,24.9751h-4.415Zm-1.28466-3.29492L99.937,8.46777,96.83936,16.0459Z"/><path d="M129.26221.98828V4.67871h-6.19483V24.9751h-3.82226V4.67871h-6.02979V.98828Z"/><path d="M150.05322.98828V4.67871H137.99365V11.0708h10.7417v3.69043h-10.7417v6.52344h12.521V24.9751H134.13818V.98828Z"/><path class="a" d="M8.99561,4.25049A4.54274,4.54274,0,0,0,6.17822,5.041a2.58393,2.58393,0,0,0-1.03808,2.1748A2.67618,2.67618,0,0,0,6.44189,9.47266,17.20422,17.20422,0,0,0,10.083,11.26855a14.90052,14.90052,0,0,1,3.04785,1.43311,6.47371,6.47371,0,0,1,2.09228,2.19092,6.74365,6.74365,0,0,1,.82374,3.49267,6.45572,6.45572,0,0,1-.95557,3.45948,6.75044,6.75044,0,0,1-2.76807,2.47119,9.32733,9.32733,0,0,1-4.2832.92285,13.982,13.982,0,0,1-4.28369-.67529A13.34539,13.34539,0,0,1,0,22.70166l1.71338-2.99854a11.01809,11.01809,0,0,0,2.8833,1.53223,8.99453,8.99453,0,0,0,3.08057.60938,5.57835,5.57835,0,0,0,3.06445-.83985,2.85262,2.85262,0,0,0,1.31836-2.58642,2.88561,2.88561,0,0,0-1.104-2.30664,10.92284,10.92284,0,0,0-3.081-1.68018,25.78222,25.78222,0,0,1-3.39355-1.49951A7.06562,7.06562,0,0,1,2.1582,10.85645a5.53007,5.53007,0,0,1-.97168-3.34424,6.05872,6.05872,0,0,1,1.99317-4.728A8.06851,8.06851,0,0,1,8.43555.85645a14.41137,14.41137,0,0,1,4.168.54394,13.39888,13.39888,0,0,1,3.34423,1.53223l-1.4497,2.93213A12.20637,12.20637,0,0,0,8.99561,4.25049Z"/><path class="a" d="M24.877,11.40039l.52686-.75781L34.43213.98828H39.375l-9.918,10.478L39.7373,24.9751H34.86084L26.65625,13.9043l-1.68066,1.64746V24.9751H21.0874V.98828h3.88819v9.19287Z"/><path class="a" d="M62.93408.98828,53.939,17.19922V24.9751H50.1167V17.19922L41.25293.98828h4.71191l6.19483,11.82861L58.22217.98828Z"/><path class="a" d="M82.62158,24.46436a15.063,15.063,0,0,1-4.49756.77441,14.02926,14.02926,0,0,1-6.65576-1.51563,10.86031,10.86031,0,0,1-4.41553-4.168A11.70069,11.70069,0,0,1,65.50391,13.542,13.74384,13.74384,0,0,1,67.168,6.58984a11.02336,11.02336,0,0,1,4.48144-4.38232A13.06237,13.06237,0,0,1,77.82764.72461a15.79416,15.79416,0,0,1,3.9375.478,13.70513,13.70513,0,0,1,3.27832,1.26855l-1.252,3.5586A10.17282,10.17282,0,0,0,81.17188,5.0083a11.45387,11.45387,0,0,0-2.8501-.42871,8.99233,8.99233,0,0,0-6.49121,2.27393A8.39108,8.39108,0,0,0,69.458,13.2124a8.26356,8.26356,0,0,0,1.104,4.29981A7.47571,7.47571,0,0,0,73.65918,20.395a9.865,9.865,0,0,0,4.56348,1.02148,11.05563,11.05563,0,0,0,2.208-.21386,6.359,6.359,0,0,0,1.7793-.60987V16.606H77.6958V12.916h8.36914v9.85156A9.27774,9.27774,0,0,1,82.62158,24.46436Z"/><path class="a" d="M104.22021,19.34082H95.48877L93.18213,24.9751H89.39307L100.00293,0h.23047l10.60986,24.9751h-4.415Zm-1.28466-3.29492L99.937,8.46777,96.83936,16.0459Z"/><path class="a" d="M129.26221.98828V4.67871h-6.19483V24.9751h-3.82226V4.67871h-6.02979V.98828Z"/><path class="a" d="M150.05322.98828V4.67871H137.99365V11.0708h10.7417v3.69043h-10.7417v6.52344h12.521V24.9751H134.13818V.98828Z"/></svg>