<svg xmlns="http://www.w3.org/2000/svg" xmlns:xlink="http://www.w3.org/1999/xlink" viewBox="0 0 237.93802 62"><defs><style>.a{fill:url(#a);}.b{fill:url(#b);}.c{fill:url(#c);}.d{fill:#0096df;}.e{fill:#383c41;}</style><linearGradient id="a" x1="35.66845" y1="34.5189" x2="65.86522" y2="34.5189" gradientUnits="userSpaceOnUse"><stop offset="0" stop-color="#0077b3"/><stop offset="0.204" stop-color="#158ebd"/><stop offset="0.62804" stop-color="#4cc7d8"/><stop offset="1" stop-color="#80fff2"/></linearGradient><linearGradient id="b" x1="2.53293" y1="58.12277" x2="81.50226" y2="38.84891" gradientUnits="userSpaceOnUse"><stop offset="0" stop-color="#80fff2"/><stop offset="0.50909" stop-color="#0077b3"/><stop offset="0.57497" stop-color="#0880b7"/><stop offset="0.68052" stop-color="#1e97c2"/><stop offset="0.81255" stop-color="#42bdd4"/><stop offset="0.9646" stop-color="#73f2ec"/><stop offset="1" stop-color="#80fff2"/></linearGradient><linearGradient id="c" x1="17.56046" y1="-12.80141" x2="52.12241" y2="62.23849" gradientUnits="userSpaceOnUse"><stop offset="0" stop-color="#0077b3"/><stop offset="1" stop-color="#80fff2"/></linearGradient></defs><title>brand_color</title><path class="a" d="M41.38453,61.99608a28.67082,28.67082,0,0,0,16.88785-5.57415c12.89479-10.71806,6.86274-36.55882-2.23625-49.3802A54.3743,54.3743,0,0,1,37.32,45.9107C29.15282,52.9504,31.46057,61.99608,41.38453,61.99608Z"/><path class="b" d="M59.47851,32.82056C48.19729,43.74857,25.15018,55.98173,0,44.60917,8.47871,50.19238,13.02821,53.915,23.79293,58.26364c11.16978,4.51221,23.62363,6.06362,34.47945-1.84171A31.32279,31.32279,0,0,0,68.72455,43.21774c2.02154-4.68293,4.57223-10.4046,10.43163-10.4046C74.98807,25.58263,66.09592,26.41,59.47851,32.82056Z"/><path class="c" d="M9.94524,0C8.56647,35.295,20.04448,49.66586,32.83168,57.35428a22.32276,22.32276,0,0,0,25.4407-.93235A31.32279,31.32279,0,0,0,68.72455,43.21774C60.40581,54.59673,22.97324,23.78156,9.94524,0Z"/><path d="M96.41849,22.552a4.54274,4.54274,0,0,0-2.81739.79053,2.58393,2.58393,0,0,0-1.03808,2.1748,2.67616,2.67616,0,0,0,1.30175,2.25684,17.20418,17.20418,0,0,0,3.64112,1.7959,14.90052,14.90052,0,0,1,3.04785,1.4331,6.47389,6.47389,0,0,1,2.09228,2.19092,6.74367,6.74367,0,0,1,.82374,3.49268,6.45571,6.45571,0,0,1-.95557,3.45947,6.75044,6.75044,0,0,1-2.76807,2.47119,9.3272,9.3272,0,0,1-4.2832.92285,13.98168,13.98168,0,0,1-4.28369-.67529,13.34539,13.34539,0,0,1-3.75635-1.86182l1.71338-2.99853a11.01837,11.01837,0,0,0,2.8833,1.53222,8.99492,8.99492,0,0,0,3.08105.60938,5.57677,5.57677,0,0,0,3.064-.83984A2.85264,2.85264,0,0,0,99.48294,36.72a2.88561,2.88561,0,0,0-1.104-2.30664,10.92284,10.92284,0,0,0-3.081-1.68018,25.78222,25.78222,0,0,1-3.39355-1.49951,7.06551,7.06551,0,0,1-2.32325-2.07568,5.53007,5.53007,0,0,1-.97168-3.34424,6.05872,6.05872,0,0,1,1.99317-4.728,8.06862,8.06862,0,0,1,5.25586-1.92773,14.409,14.409,0,0,1,4.168.54394,13.39086,13.39086,0,0,1,3.34423,1.53223l-1.4497,2.93213A12.2065,12.2065,0,0,0,96.41849,22.552Z"/><path d="M112.30032,29.70188l.52686-.75781,9.02832-9.6543h4.94287l-9.918,10.478,10.28027,13.50879h-4.87646l-8.20459-11.0708L112.399,33.85325v9.42334h-3.88818V19.28977H112.399v9.19288Z"/><path d="M150.35745,19.28977l-8.99512,16.21094v7.77588h-3.82226V35.50071L128.6763,19.28977h4.71191L139.583,31.11839l6.0625-11.82862Z"/><path d="M170.045,42.76585a15.063,15.063,0,0,1-4.49756.77441,14.02935,14.02935,0,0,1-6.65576-1.51562,10.8604,10.8604,0,0,1-4.41553-4.168,11.70039,11.70039,0,0,1-1.54834-6.01319,13.74244,13.74244,0,0,1,1.66358-6.95214,11.02326,11.02326,0,0,1,4.48144-4.38233A13.06237,13.06237,0,0,1,165.251,19.0261a15.79427,15.79427,0,0,1,3.9375.478,13.70555,13.70555,0,0,1,3.27832,1.26855l-1.252,3.5586a10.17276,10.17276,0,0,0-2.61963-1.02149,11.4542,11.4542,0,0,0-2.85009-.42871,8.99032,8.99032,0,0,0-6.49122,2.27393,8.39112,8.39112,0,0,0-2.37255,6.35889,8.26352,8.26352,0,0,0,1.104,4.2998,7.47564,7.47564,0,0,0,3.09717,2.88281,9.86564,9.86564,0,0,0,4.564,1.02149,11.05354,11.05354,0,0,0,2.20752-.21387,6.35929,6.35929,0,0,0,1.7793-.60986V34.90745h-4.51416V31.21751h8.36914v9.85156A9.27356,9.27356,0,0,1,170.045,42.76585Z"/><path d="M191.64358,37.64231h-8.73144l-2.30664,5.63428h-3.78907l10.60987-24.9751h.23047l10.60986,24.9751h-4.415Zm-1.28466-3.29492-2.99854-7.57812-3.09766,7.57812Z"/><path d="M216.68558,19.28977V22.9802h-6.19483V43.27659h-3.82226V22.9802H200.6387V19.28977Z"/><path d="M237.47659,19.28977V22.9802H225.417v6.39209h10.7417v3.69043H225.417v6.52344h12.521v3.69043H221.56155V19.28977Z"/><path class="d" d="M96.41849,22.552a4.54274,4.54274,0,0,0-2.81739.79053,2.58393,2.58393,0,0,0-1.03808,2.1748,2.67616,2.67616,0,0,0,1.30175,2.25684,17.20418,17.20418,0,0,0,3.64112,1.7959,14.90052,14.90052,0,0,1,3.04785,1.4331,6.47389,6.47389,0,0,1,2.09228,2.19092,6.74367,6.74367,0,0,1,.82374,3.49268,6.45571,6.45571,0,0,1-.95557,3.45947,6.75044,6.75044,0,0,1-2.76807,2.47119,9.3272,9.3272,0,0,1-4.2832.92285,13.98168,13.98168,0,0,1-4.28369-.67529,13.34539,13.34539,0,0,1-3.75635-1.86182l1.71338-2.99853a11.01837,11.01837,0,0,0,2.8833,1.53222,8.99492,8.99492,0,0,0,3.08105.60938,5.57677,5.57677,0,0,0,3.064-.83984A2.85264,2.85264,0,0,0,99.48294,36.72a2.88561,2.88561,0,0,0-1.104-2.30664,10.92284,10.92284,0,0,0-3.081-1.68018,25.78222,25.78222,0,0,1-3.39355-1.49951,7.06551,7.06551,0,0,1-2.32325-2.07568,5.53007,5.53007,0,0,1-.97168-3.34424,6.05872,6.05872,0,0,1,1.99317-4.728,8.06862,8.06862,0,0,1,5.25586-1.92773,14.409,14.409,0,0,1,4.168.54394,13.39086,13.39086,0,0,1,3.34423,1.53223l-1.4497,2.93213A12.2065,12.2065,0,0,0,96.41849,22.552Z"/><path class="d" d="M112.30032,29.70188l.52686-.75781,9.02832-9.6543h4.94287l-9.918,10.478,10.28027,13.50879h-4.87646l-8.20459-11.0708L112.399,33.85325v9.42334h-3.88818V19.28977H112.399v9.19288Z"/><path class="d" d="M150.35745,19.28977l-8.99512,16.21094v7.77588h-3.82226V35.50071L128.6763,19.28977h4.71191L139.583,31.11839l6.0625-11.82862Z"/><path class="d" d="M170.045,42.76585a15.063,15.063,0,0,1-4.49756.77441,14.02935,14.02935,0,0,1-6.65576-1.51562,10.8604,10.8604,0,0,1-4.41553-4.168,11.70039,11.70039,0,0,1-1.54834-6.01319,13.74244,13.74244,0,0,1,1.66358-6.95214,11.02326,11.02326,0,0,1,4.48144-4.38233A13.06237,13.06237,0,0,1,165.251,19.0261a15.79427,15.79427,0,0,1,3.9375.478,13.70555,13.70555,0,0,1,3.27832,1.26855l-1.252,3.5586a10.17276,10.17276,0,0,0-2.61963-1.02149,11.4542,11.4542,0,0,0-2.85009-.42871,8.99032,8.99032,0,0,0-6.49122,2.27393,8.39112,8.39112,0,0,0-2.37255,6.35889,8.26352,8.26352,0,0,0,1.104,4.2998,7.47564,7.47564,0,0,0,3.09717,2.88281,9.86564,9.86564,0,0,0,4.564,1.02149,11.05354,11.05354,0,0,0,2.20752-.21387,6.35929,6.35929,0,0,0,1.7793-.60986V34.90745h-4.51416V31.21751h8.36914v9.85156A9.27356,9.27356,0,0,1,170.045,42.76585Z"/><path class="d" d="M191.64358,37.64231h-8.73144l-2.30664,5.63428h-3.78907l10.60987-24.9751h.23047l10.60986,24.9751h-4.415Zm-1.28466-3.29492-2.99854-7.57812-3.09766,7.57812Z"/><path class="d" d="M216.68558,19.28977V22.9802h-6.19483V43.27659h-3.82226V22.9802H200.6387V19.28977Z"/><path class="d" d="M237.47659,19.28977V22.9802H225.417v6.39209h10.7417v3.69043H225.417v6.52344h12.521v3.69043H221.56155V19.28977Z"/><path class="e" d="M96.41849,22.552a4.54274,4.54274,0,0,0-2.81739.79053,2.58393,2.58393,0,0,0-1.03808,2.1748,2.67616,2.67616,0,0,0,1.30175,2.25684,17.20418,17.20418,0,0,0,3.64112,1.7959,14.90052,14.90052,0,0,1,3.04785,1.4331,6.47389,6.47389,0,0,1,2.09228,2.19092,6.74367,6.74367,0,0,1,.82374,3.49268,6.45571,6.45571,0,0,1-.95557,3.45947,6.75044,6.75044,0,0,1-2.76807,2.47119,9.3272,9.3272,0,0,1-4.2832.92285,13.98168,13.98168,0,0,1-4.28369-.67529,13.34539,13.34539,0,0,1-3.75635-1.86182l1.71338-2.99853a11.01837,11.01837,0,0,0,2.8833,1.53222,8.99492,8.99492,0,0,0,3.08105.60938,5.57677,5.57677,0,0,0,3.064-.83984A2.85264,2.85264,0,0,0,99.48294,36.72a2.88561,2.88561,0,0,0-1.104-2.30664,10.92284,10.92284,0,0,0-3.081-1.68018,25.78222,25.78222,0,0,1-3.39355-1.49951,7.06551,7.06551,0,0,1-2.32325-2.07568,5.53007,5.53007,0,0,1-.97168-3.34424,6.05872,6.05872,0,0,1,1.99317-4.728,8.06862,8.06862,0,0,1,5.25586-1.92773,14.409,14.409,0,0,1,4.168.54394,13.39086,13.39086,0,0,1,3.34423,1.53223l-1.4497,2.93213A12.2065,12.2065,0,0,0,96.41849,22.552Z"/><path class="e" d="M112.30032,29.70188l.52686-.75781,9.02832-9.6543h4.94287l-9.918,10.478,10.28027,13.50879h-4.87646l-8.20459-11.0708L112.399,33.85325v9.42334h-3.88818V19.28977H112.399v9.19288Z"/><path class="e" d="M150.35745,19.28977l-8.99512,16.21094v7.77588h-3.82226V35.50071L128.6763,19.28977h4.71191L139.583,31.11839l6.0625-11.82862Z"/><path class="e" d="M170.045,42.76585a15.063,15.063,0,0,1-4.49756.77441,14.02935,14.02935,0,0,1-6.65576-1.51562,10.8604,10.8604,0,0,1-4.41553-4.168,11.70039,11.70039,0,0,1-1.54834-6.01319,13.74244,13.74244,0,0,1,1.66358-6.95214,11.02326,11.02326,0,0,1,4.48144-4.38233A13.06237,13.06237,0,0,1,165.251,19.0261a15.79427,15.79427,0,0,1,3.9375.478,13.70555,13.70555,0,0,1,3.27832,1.26855l-1.252,3.5586a10.17276,10.17276,0,0,0-2.61963-1.02149,11.4542,11.4542,0,0,0-2.85009-.42871,8.99032,8.99032,0,0,0-6.49122,2.27393,8.39112,8.39112,0,0,0-2.37255,6.35889,8.26352,8.26352,0,0,0,1.104,4.2998,7.47564,7.47564,0,0,0,3.09717,2.88281,9.86564,9.86564,0,0,0,4.564,1.02149,11.05354,11.05354,0,0,0,2.20752-.21387,6.35929,6.35929,0,0,0,1.7793-.60986V34.90745h-4.51416V31.21751h8.36914v9.85156A9.27356,9.27356,0,0,1,170.045,42.76585Z"/><path class="e" d="M191.64358,37.64231h-8.73144l-2.30664,5.63428h-3.78907l10.60987-24.9751h.23047l10.60986,24.9751h-4.415Zm-1.28466-3.29492-2.99854-7.57812-3.09766,7.57812Z"/><path class="e" d="M216.68558,19.28977V22.9802h-6.19483V43.27659h-3.82226V22.9802H200.6387V19.28977Z"/><path class="e" d="M237.47659,19.28977V22.9802H225.417v6.39209h10.7417v3.69043H225.417v6.52344h12.521v3.69043H221.56155V19.28977Z"/></svg>