<svg xmlns="http://www.w3.org/2000/svg" xmlns:xlink="http://www.w3.org/1999/xlink" viewBox="0 0 79.15618 62"><defs><style>.a{fill:url(#a);}.b{fill:url(#b);}.c{fill:url(#c);}</style><linearGradient id="a" x1="35.66845" y1="34.5189" x2="65.86522" y2="34.5189" gradientUnits="userSpaceOnUse"><stop offset="0" stop-color="#0077b3"/><stop offset="0.204" stop-color="#158ebd"/><stop offset="0.62804" stop-color="#4cc7d8"/><stop offset="1" stop-color="#80fff2"/></linearGradient><linearGradient id="b" x1="2.53293" y1="58.12277" x2="81.50226" y2="38.84891" gradientUnits="userSpaceOnUse"><stop offset="0" stop-color="#80fff2"/><stop offset="0.50909" stop-color="#0077b3"/><stop offset="0.57497" stop-color="#0880b7"/><stop offset="0.68052" stop-color="#1e97c2"/><stop offset="0.81255" stop-color="#42bdd4"/><stop offset="0.9646" stop-color="#73f2ec"/><stop offset="1" stop-color="#80fff2"/></linearGradient><linearGradient id="c" x1="17.56046" y1="-12.80141" x2="52.12241" y2="62.23849" gradientUnits="userSpaceOnUse"><stop offset="0" stop-color="#0077b3"/><stop offset="1" stop-color="#80fff2"/></linearGradient></defs><title>brand_flybird</title><path class="a" d="M41.38453,61.99608a28.67082,28.67082,0,0,0,16.88785-5.57415c12.89479-10.71806,6.86274-36.55882-2.23625-49.3802A54.3743,54.3743,0,0,1,37.32,45.9107C29.15282,52.9504,31.46057,61.99608,41.38453,61.99608Z"/><path class="b" d="M59.47851,32.82056C48.19729,43.74857,25.15018,55.98173,0,44.60917,8.47871,50.19238,13.02821,53.915,23.79293,58.26364c11.16978,4.51221,23.62363,6.06362,34.47945-1.84171A31.32279,31.32279,0,0,0,68.72455,43.21774c2.02154-4.68293,4.57223-10.4046,10.43163-10.4046C74.98807,25.58263,66.09592,26.41,59.47851,32.82056Z"/><path class="c" d="M9.94524,0C8.56647,35.295,20.04448,49.66586,32.83168,57.35428a22.32276,22.32276,0,0,0,25.4407-.93235A31.32279,31.32279,0,0,0,68.72455,43.21774C60.40581,54.59673,22.97324,23.78156,9.94524,0Z"/></svg>