<svg xmlns="http://www.w3.org/2000/svg" viewBox="0 0 238 62"><defs><style>.a{fill:#fff;}.b{fill:#0096df;}</style></defs><title>brand_white</title><path class="a" d="M49.47492,39.38076a58.57261,58.57261,0,0,0,9.31678-7.27559,20.70681,20.70681,0,0,1,5.92459-4.06548A56.79036,56.79036,0,0,0,56.0486,7.04329,54.67332,54.67332,0,0,1,45.655,36.862C46.942,37.7563,48.221,38.613,49.47492,39.38076Z"/><path class="a" d="M63.32733,44.661a5.2748,5.2748,0,0,0,4.6003-2.02742l3.36811-4.60712a15.56284,15.56284,0,0,1,1.6268-2.22523l.30275-.41414-.0592.13688a7.98483,7.98483,0,0,1,6.00773-2.70348c-4.169-7.23218-13.06317-6.40463-19.68206.00737a59.03951,59.03951,0,0,1-9.06389,7.14387C55.42892,42.91137,59.93944,44.661,63.32733,44.661Z"/><path class="a" d="M32.32053,58.22932a43.63454,43.63454,0,0,1-10.91625-9.07839A49.59545,49.59545,0,0,1,0,44.6191C8.48057,50.20355,13.03112,53.927,23.7982,58.2766c6.45474,2.6075,13.33725,4.21188,20.09351,3.58931A24.51746,24.51746,0,0,1,32.32053,58.22932Z"/><path class="a" d="M9.94746,0C8.56837,35.30282,20.04894,49.67692,32.839,57.36706a22.32776,22.32776,0,0,0,25.44638-.93255,31.33,31.33,0,0,0,10.4545-13.20714C60.41927,54.6089,22.97835,23.78686,9.94746,0Z"/><path d="M96.48047,22.63086a4.53963,4.53963,0,0,0-2.81738.791,2.58391,2.58391,0,0,0-1.03809,2.1748,2.67738,2.67738,0,0,0,1.30176,2.25684,17.22747,17.22747,0,0,0,3.64111,1.79589,14.87515,14.87515,0,0,1,3.04785,1.43262,6.47543,6.47543,0,0,1,2.09229,2.19141,6.74179,6.74179,0,0,1,.82373,3.49219,6.4586,6.4586,0,0,1-.95557,3.46,6.74944,6.74944,0,0,1-2.76806,2.4707,9.32737,9.32737,0,0,1-4.28321.92285,13.99629,13.99629,0,0,1-4.28369-.6748A13.33345,13.33345,0,0,1,87.48486,41.082L89.19824,38.084a11.01825,11.01825,0,0,0,2.8833,1.53223,9.00656,9.00656,0,0,0,3.08106.60938,5.58075,5.58075,0,0,0,3.064-.83985,2.85343,2.85343,0,0,0,1.31836-2.58691,2.8856,2.8856,0,0,0-1.104-2.30664,10.92319,10.92319,0,0,0-3.08106-1.67969,25.77751,25.77751,0,0,1-3.39355-1.5,7.06392,7.06392,0,0,1-2.32324-2.0752,5.53053,5.53053,0,0,1-.97168-3.34472A6.05837,6.05837,0,0,1,90.66455,21.165a8.06605,8.06605,0,0,1,5.25586-1.92774,14.39212,14.39212,0,0,1,4.168.54395,13.39074,13.39074,0,0,1,3.34424,1.53223l-1.44971,2.93164A12.21256,12.21256,0,0,0,96.48047,22.63086Z"/><path d="M112.3623,29.78125l.52686-.75781,9.02832-9.6543h4.94287l-9.918,10.47754,10.28028,13.50879h-4.87647L114.1416,32.28516l-1.68066,1.64746v9.42285h-3.88819V19.36914h3.88819v9.19238Z"/><path d="M150.41943,19.36914l-8.99511,16.21094v7.77539h-3.82227V35.58008l-8.86377-16.21094h4.71192L139.645,31.19727l6.0625-11.82813Z"/><path d="M170.10693,42.84473a15.04743,15.04743,0,0,1-4.49755.77441,14.02942,14.02942,0,0,1-6.65577-1.51562,10.8539,10.8539,0,0,1-4.41552-4.168,11.69723,11.69723,0,0,1-1.54834-6.0127,13.74131,13.74131,0,0,1,1.66357-6.95215,11.02461,11.02461,0,0,1,4.48145-4.38281,13.062,13.062,0,0,1,6.17822-1.48242,15.79428,15.79428,0,0,1,3.9375.47754,13.72573,13.72573,0,0,1,3.27832,1.26855l-1.25195,3.5586a10.19031,10.19031,0,0,0-2.61963-1.02149,11.45433,11.45433,0,0,0-2.8501-.42871,8.98839,8.98839,0,0,0-6.49121,2.27442,8.39,8.39,0,0,0-2.37256,6.35839,8.26241,8.26241,0,0,0,1.104,4.29981,7.47256,7.47256,0,0,0,3.09717,2.88281,9.85955,9.85955,0,0,0,4.564,1.02149A11.01846,11.01846,0,0,0,167.916,39.583a6.35963,6.35963,0,0,0,1.77929-.60938v-3.9873h-4.51416V31.29688h8.36914v9.85156A9.27427,9.27427,0,0,1,170.10693,42.84473Z"/><path d="M191.70557,37.72168h-8.73145l-2.30664,5.63379h-3.78906l10.60986-24.97461h.23047l10.60986,24.97461h-4.415Zm-1.28467-3.29492-2.99854-7.57813-3.09765,7.57813Z"/><path d="M216.74756,19.36914v3.69043h-6.19483v20.2959h-3.82226V23.05957h-6.02979V19.36914Z"/><path d="M237.53857,19.36914v3.69043H225.479v6.3916h10.7417V33.1416H225.479V39.665H238v3.69043H221.62354V19.36914Z"/><path class="b" d="M96.48047,22.63086a4.53963,4.53963,0,0,0-2.81738.791,2.58391,2.58391,0,0,0-1.03809,2.1748,2.67738,2.67738,0,0,0,1.30176,2.25684,17.22747,17.22747,0,0,0,3.64111,1.79589,14.87515,14.87515,0,0,1,3.04785,1.43262,6.47543,6.47543,0,0,1,2.09229,2.19141,6.74179,6.74179,0,0,1,.82373,3.49219,6.4586,6.4586,0,0,1-.95557,3.46,6.74944,6.74944,0,0,1-2.76806,2.4707,9.32737,9.32737,0,0,1-4.28321.92285,13.99629,13.99629,0,0,1-4.28369-.6748A13.33345,13.33345,0,0,1,87.48486,41.082L89.19824,38.084a11.01825,11.01825,0,0,0,2.8833,1.53223,9.00656,9.00656,0,0,0,3.08106.60938,5.58075,5.58075,0,0,0,3.064-.83985,2.85343,2.85343,0,0,0,1.31836-2.58691,2.8856,2.8856,0,0,0-1.104-2.30664,10.92319,10.92319,0,0,0-3.08106-1.67969,25.77751,25.77751,0,0,1-3.39355-1.5,7.06392,7.06392,0,0,1-2.32324-2.0752,5.53053,5.53053,0,0,1-.97168-3.34472A6.05837,6.05837,0,0,1,90.66455,21.165a8.06605,8.06605,0,0,1,5.25586-1.92774,14.39212,14.39212,0,0,1,4.168.54395,13.39074,13.39074,0,0,1,3.34424,1.53223l-1.44971,2.93164A12.21256,12.21256,0,0,0,96.48047,22.63086Z"/><path class="b" d="M112.3623,29.78125l.52686-.75781,9.02832-9.6543h4.94287l-9.918,10.47754,10.28028,13.50879h-4.87647L114.1416,32.28516l-1.68066,1.64746v9.42285h-3.88819V19.36914h3.88819v9.19238Z"/><path class="b" d="M150.41943,19.36914l-8.99511,16.21094v7.77539h-3.82227V35.58008l-8.86377-16.21094h4.71192L139.645,31.19727l6.0625-11.82813Z"/><path class="b" d="M170.10693,42.84473a15.04743,15.04743,0,0,1-4.49755.77441,14.02942,14.02942,0,0,1-6.65577-1.51562,10.8539,10.8539,0,0,1-4.41552-4.168,11.69723,11.69723,0,0,1-1.54834-6.0127,13.74131,13.74131,0,0,1,1.66357-6.95215,11.02461,11.02461,0,0,1,4.48145-4.38281,13.062,13.062,0,0,1,6.17822-1.48242,15.79428,15.79428,0,0,1,3.9375.47754,13.72573,13.72573,0,0,1,3.27832,1.26855l-1.25195,3.5586a10.19031,10.19031,0,0,0-2.61963-1.02149,11.45433,11.45433,0,0,0-2.8501-.42871,8.98839,8.98839,0,0,0-6.49121,2.27442,8.39,8.39,0,0,0-2.37256,6.35839,8.26241,8.26241,0,0,0,1.104,4.29981,7.47256,7.47256,0,0,0,3.09717,2.88281,9.85955,9.85955,0,0,0,4.564,1.02149A11.01846,11.01846,0,0,0,167.916,39.583a6.35963,6.35963,0,0,0,1.77929-.60938v-3.9873h-4.51416V31.29688h8.36914v9.85156A9.27427,9.27427,0,0,1,170.10693,42.84473Z"/><path class="b" d="M191.70557,37.72168h-8.73145l-2.30664,5.63379h-3.78906l10.60986-24.97461h.23047l10.60986,24.97461h-4.415Zm-1.28467-3.29492-2.99854-7.57813-3.09765,7.57813Z"/><path class="b" d="M216.74756,19.36914v3.69043h-6.19483v20.2959h-3.82226V23.05957h-6.02979V19.36914Z"/><path class="b" d="M237.53857,19.36914v3.69043H225.479v6.3916h10.7417V33.1416H225.479V39.665H238v3.69043H221.62354V19.36914Z"/><path class="a" d="M96.48047,22.63086a4.53963,4.53963,0,0,0-2.81738.791,2.58391,2.58391,0,0,0-1.03809,2.1748,2.67738,2.67738,0,0,0,1.30176,2.25684,17.22747,17.22747,0,0,0,3.64111,1.79589,14.87515,14.87515,0,0,1,3.04785,1.43262,6.47543,6.47543,0,0,1,2.09229,2.19141,6.74179,6.74179,0,0,1,.82373,3.49219,6.4586,6.4586,0,0,1-.95557,3.46,6.74944,6.74944,0,0,1-2.76806,2.4707,9.32737,9.32737,0,0,1-4.28321.92285,13.99629,13.99629,0,0,1-4.28369-.6748A13.33345,13.33345,0,0,1,87.48486,41.082L89.19824,38.084a11.01825,11.01825,0,0,0,2.8833,1.53223,9.00656,9.00656,0,0,0,3.08106.60938,5.58075,5.58075,0,0,0,3.064-.83985,2.85343,2.85343,0,0,0,1.31836-2.58691,2.8856,2.8856,0,0,0-1.104-2.30664,10.92319,10.92319,0,0,0-3.08106-1.67969,25.77751,25.77751,0,0,1-3.39355-1.5,7.06392,7.06392,0,0,1-2.32324-2.0752,5.53053,5.53053,0,0,1-.97168-3.34472A6.05837,6.05837,0,0,1,90.66455,21.165a8.06605,8.06605,0,0,1,5.25586-1.92774,14.39212,14.39212,0,0,1,4.168.54395,13.39074,13.39074,0,0,1,3.34424,1.53223l-1.44971,2.93164A12.21256,12.21256,0,0,0,96.48047,22.63086Z"/><path class="a" d="M112.3623,29.78125l.52686-.75781,9.02832-9.6543h4.94287l-9.918,10.47754,10.28028,13.50879h-4.87647L114.1416,32.28516l-1.68066,1.64746v9.42285h-3.88819V19.36914h3.88819v9.19238Z"/><path class="a" d="M150.41943,19.36914l-8.99511,16.21094v7.77539h-3.82227V35.58008l-8.86377-16.21094h4.71192L139.645,31.19727l6.0625-11.82813Z"/><path class="a" d="M170.10693,42.84473a15.04743,15.04743,0,0,1-4.49755.77441,14.02942,14.02942,0,0,1-6.65577-1.51562,10.8539,10.8539,0,0,1-4.41552-4.168,11.69723,11.69723,0,0,1-1.54834-6.0127,13.74131,13.74131,0,0,1,1.66357-6.95215,11.02461,11.02461,0,0,1,4.48145-4.38281,13.062,13.062,0,0,1,6.17822-1.48242,15.79428,15.79428,0,0,1,3.9375.47754,13.72573,13.72573,0,0,1,3.27832,1.26855l-1.25195,3.5586a10.19031,10.19031,0,0,0-2.61963-1.02149,11.45433,11.45433,0,0,0-2.8501-.42871,8.98839,8.98839,0,0,0-6.49121,2.27442,8.39,8.39,0,0,0-2.37256,6.35839,8.26241,8.26241,0,0,0,1.104,4.29981,7.47256,7.47256,0,0,0,3.09717,2.88281,9.85955,9.85955,0,0,0,4.564,1.02149A11.01846,11.01846,0,0,0,167.916,39.583a6.35963,6.35963,0,0,0,1.77929-.60938v-3.9873h-4.51416V31.29688h8.36914v9.85156A9.27427,9.27427,0,0,1,170.10693,42.84473Z"/><path class="a" d="M191.70557,37.72168h-8.73145l-2.30664,5.63379h-3.78906l10.60986-24.97461h.23047l10.60986,24.97461h-4.415Zm-1.28467-3.29492-2.99854-7.57813-3.09765,7.57813Z"/><path class="a" d="M216.74756,19.36914v3.69043h-6.19483v20.2959h-3.82226V23.05957h-6.02979V19.36914Z"/><path class="a" d="M237.53857,19.36914v3.69043H225.479v6.3916h10.7417V33.1416H225.479V39.665H238v3.69043H221.62354V19.36914Z"/></svg>