<svg xmlns="http://www.w3.org/2000/svg" viewBox="0 0 383.93006 512.001"><defs><style>.a{fill:#73767a;}</style></defs><title>image_404</title><path class="a" d="M298.054,164.018H85.882a11.988,11.988,0,0,0,0,23.976H298.054a11.988,11.988,0,0,0,0-23.976Z"/><path class="a" d="M298.054,236.356H85.882a11.988,11.988,0,1,0,0,23.976H298.054a11.988,11.988,0,0,0,0-23.976Z"/><path class="a" d="M383.904,103.44a11.97745,11.97745,0,0,0-3.489-8.158l-91.69-91.69A11.95067,11.95067,0,0,0,280.175,0H25.252A25.27612,25.27612,0,0,0,.005,25.248L.01,324.601c0,.106.013.207.016.313A17.861,17.861,0,0,0,8.51,339.693L49.862,365.36a41.71119,41.71119,0,0,0,44.252-.001l28.381-17.614a17.87506,17.87506,0,0,1,18.965-.001l28.381,17.615a41.70079,41.70079,0,0,0,44.252,0l28.381-17.615a17.87926,17.87926,0,0,1,18.965,0l28.381,17.615a41.70073,41.70073,0,0,0,44.252,0l41.355-25.667a17.86144,17.86144,0,0,0,8.482-14.777c.002-.104.016-.207.016-.313l.005-220.845A3.09423,3.09423,0,0,0,383.904,103.44ZM292.16,40.936h.001L342.995,91.77H293.422a1.26454,1.26454,0,0,1-1.262-1.262V40.936Zm67.79,280.145-38.52,23.908a17.875,17.875,0,0,1-18.965.001l-28.381-17.616a41.71334,41.71334,0,0,0-44.252.001L201.451,344.99a17.87926,17.87926,0,0,1-18.965,0l-28.381-17.615a41.70067,41.70067,0,0,0-44.252,0L81.472,344.99a17.87926,17.87926,0,0,1-18.965,0l-38.52-23.909L23.981,25.249a1.27372,1.27372,0,0,1,1.271-1.272H268.185V90.509a25.26631,25.26631,0,0,0,25.238,25.238h66.532Z"/><path class="a" d="M383.925,395.949c.001-.031-.004-.061-.004-.092s.005-.061.005-.092a17.9827,17.9827,0,0,0-27.465-15.278l-35.44,21.994a17.11324,17.11324,0,0,1-18.15.001l-29.197-18.121a40.92854,40.92854,0,0,0-43.437,0l-29.197,18.12a17.115,17.115,0,0,1-18.151.001l-29.197-18.121a40.93679,40.93679,0,0,0-43.437,0L81.06,402.481a17.109,17.109,0,0,1-18.15,0L27.471,380.487A17.9832,17.9832,0,0,0,.005,395.765c0,.031.005.061.005.092s-.005.061-.005.092L0,486.753a25.27547,25.27547,0,0,0,25.247,25.248H358.681a25.27635,25.27635,0,0,0,25.247-25.249Zm-25.241,92.076H25.252a1.27352,1.27352,0,0,1-1.271-1.271l.004-80.215L50.27,422.853a40.94543,40.94543,0,0,0,43.436-.001l29.195-18.121a17.11079,17.11079,0,0,1,18.151,0l29.195,18.122a40.94277,40.94277,0,0,0,43.438-.001l29.195-18.121a17.10659,17.10659,0,0,1,18.151,0l29.197,18.122a40.94339,40.94339,0,0,0,43.436,0l26.285-16.314.004,80.214A1.27,1.27,0,0,1,358.684,488.025Z"/></svg>